<?xml version="1.0" encoding="UTF-8" standalone="no"?>
<!-- Created with Inkscape (http://www.inkscape.org/) -->

<svg
   xmlns:dc="http://purl.org/dc/elements/1.1/"
   xmlns:cc="http://creativecommons.org/ns#"
   xmlns:rdf="http://www.w3.org/1999/02/22-rdf-syntax-ns#"
   xmlns:svg="http://www.w3.org/2000/svg"
   xmlns="http://www.w3.org/2000/svg"
   xmlns:xlink="http://www.w3.org/1999/xlink"
   xmlns:sodipodi="http://sodipodi.sourceforge.net/DTD/sodipodi-0.dtd"
   xmlns:inkscape="http://www.inkscape.org/namespaces/inkscape"
   version="1.1"
   width="48"
   height="48"
   id="svg6955"
   inkscape:version="0.48.5 r10040"
   sodipodi:docname="notification-message-im.svg">
  <sodipodi:namedview
     pagecolor="#ffffff"
     bordercolor="#666666"
     borderopacity="1"
     objecttolerance="10"
     gridtolerance="10"
     guidetolerance="10"
     inkscape:pageopacity="0"
     inkscape:pageshadow="2"
     inkscape:window-width="851"
     inkscape:window-height="622"
     id="namedview39"
     showgrid="false"
     inkscape:zoom="0.61458334"
     inkscape:cx="3.157295"
     inkscape:cy="85.847454"
     inkscape:window-x="2014"
     inkscape:window-y="119"
     inkscape:window-maximized="0"
     inkscape:current-layer="svg6955" />
  <defs
     id="defs6957">
    <linearGradient
       x1="22.642942"
       y1="26.966721"
       x2="22.642942"
       y2="30.98424"
       id="linearGradient6883"
       xlink:href="#linearGradient3922"
       gradientUnits="userSpaceOnUse"
       gradientTransform="translate(-0.2938755,2.5949995)" />
    <linearGradient
       id="linearGradient3922">
      <stop
         id="stop3924"
         style="stop-color:#000000;stop-opacity:1"
         offset="0" />
      <stop
         id="stop3926-9"
         style="stop-color:#000000;stop-opacity:0"
         offset="1" />
    </linearGradient>
    <linearGradient
       x1="22.642942"
       y1="26.966721"
       x2="22.642942"
       y2="30.98424"
       id="linearGradient6886"
       xlink:href="#linearGradient3922"
       gradientUnits="userSpaceOnUse"
       gradientTransform="translate(-0.2938755,2.5949995)" />
    <linearGradient
       x1="132.3414"
       y1="2.2922528"
       x2="132.3414"
       y2="33.33271"
       id="linearGradient6784"
       xlink:href="#linearGradient6786"
       gradientUnits="userSpaceOnUse"
       gradientTransform="matrix(0.89189031,0,0,1.0580283,-94.605571,3.1181196)" />
    <linearGradient
       id="linearGradient6786">
      <stop
         id="stop6788"
         style="stop-color:#ffffff;stop-opacity:1"
         offset="0" />
      <stop
         id="stop6790"
         style="stop-color:#ffffff;stop-opacity:0.23529412"
         offset="0.46352294" />
      <stop
         id="stop6792"
         style="stop-color:#ffffff;stop-opacity:0.15686275"
         offset="0.76175833" />
      <stop
         id="stop6794"
         style="stop-color:#ffffff;stop-opacity:0.39215687"
         offset="1" />
    </linearGradient>
    <linearGradient
       x1="-51.786404"
       y1="53.514328"
       x2="-51.786404"
       y2="3.6336823"
       id="linearGradient3394-3"
       xlink:href="#linearGradient3104-8-8-97-9"
       gradientUnits="userSpaceOnUse"
       gradientTransform="matrix(0.80749834,0,0,0.83374395,59.410297,-0.3364531)" />
    <linearGradient
       id="linearGradient3104-8-8-97-9">
      <stop
         id="stop3106-5-4-3-6"
         style="stop-color:#08828b;stop-opacity:1;"
         offset="0" />
      <stop
         id="stop3108-4-3-7-0"
         style="stop-color:#81d3d9;stop-opacity:1;"
         offset="1" />
    </linearGradient>
    <linearGradient
       id="linearGradient3600-8-3">
      <stop
         id="stop3828-7-6"
         style="stop-color:#f4f4f4;stop-opacity:1"
         offset="0" />
      <stop
         id="stop3794"
         style="stop-color:#c4ebed;stop-opacity:1;"
         offset="0.6956892" />
      <stop
         id="stop3604-2-5"
         style="stop-color:#93dadf;stop-opacity:1;"
         offset="1" />
    </linearGradient>
    <linearGradient
       id="linearGradient8838-561-565">
      <stop
         id="stop4621"
         style="stop-color:#0a0a0a;stop-opacity:1"
         offset="0" />
      <stop
         id="stop4623"
         style="stop-color:#0a0a0a;stop-opacity:0"
         offset="1" />
    </linearGradient>
    <radialGradient
       cx="62.625"
       cy="4.625"
       r="10.625"
       fx="62.625"
       fy="4.625"
       id="radialGradient6953"
       xlink:href="#linearGradient8838-561-565"
       gradientUnits="userSpaceOnUse"
       gradientTransform="matrix(2.1647059,0,0,0.7529402,-111.56471,34.517647)" />
    <radialGradient
       cx="24.003401"
       cy="3.0403864"
       r="20.984106"
       fx="24.003401"
       fy="3.0403864"
       id="radialGradient3792"
       xlink:href="#linearGradient3600-8-3"
       gradientUnits="userSpaceOnUse"
       gradientTransform="matrix(0,1.7177641,-1.500366,0,28.565093,-35.624161)" />
    <linearGradient
       inkscape:collect="always"
       xlink:href="#linearGradient3922"
       id="linearGradient3018"
       gradientUnits="userSpaceOnUse"
       gradientTransform="matrix(1.1979673,0,0,1.1979673,-4.8454003,-2.3336314)"
       x1="22.642942"
       y1="26.966721"
       x2="22.642942"
       y2="30.98424" />
    <linearGradient
       inkscape:collect="always"
       xlink:href="#linearGradient3922"
       id="linearGradient3021"
       gradientUnits="userSpaceOnUse"
       gradientTransform="matrix(1.1979673,0,0,1.1979673,-4.8454003,-2.3336314)"
       x1="22.642942"
       y1="26.966721"
       x2="22.642942"
       y2="30.98424" />
    <linearGradient
       inkscape:collect="always"
       xlink:href="#linearGradient6786"
       id="linearGradient3026"
       gradientUnits="userSpaceOnUse"
       gradientTransform="matrix(0.89189031,0,0,1.0580283,-94.605571,3.1181196)"
       x1="132.3414"
       y1="2.2922528"
       x2="132.3414"
       y2="33.33271" />
    <linearGradient
       inkscape:collect="always"
       xlink:href="#linearGradient3104-8-8-97-9"
       id="linearGradient3029"
       gradientUnits="userSpaceOnUse"
       gradientTransform="matrix(0.80749834,0,0,0.83374395,59.410297,-0.3364531)"
       x1="-51.786404"
       y1="53.514328"
       x2="-51.786404"
       y2="3.6336823" />
    <radialGradient
       inkscape:collect="always"
       xlink:href="#linearGradient3600-8-3"
       id="radialGradient3032"
       gradientUnits="userSpaceOnUse"
       gradientTransform="matrix(0,1.7177641,-1.500366,0,28.565093,-35.624161)"
       cx="24.003401"
       cy="3.0403864"
       fx="24.003401"
       fy="3.0403864"
       r="20.984106" />
    <radialGradient
       inkscape:collect="always"
       xlink:href="#linearGradient8838-561-565"
       id="radialGradient3035"
       gradientUnits="userSpaceOnUse"
       gradientTransform="matrix(2.1647059,0,0,0.7529402,-111.56471,34.517647)"
       cx="62.625"
       cy="4.625"
       fx="62.625"
       fy="4.625"
       r="10.625" />
  </defs>
  <metadata
     id="metadata6960">
    <rdf:RDF>
      <cc:Work
         rdf:about="">
        <dc:format>image/svg+xml</dc:format>
        <dc:type
           rdf:resource="http://purl.org/dc/dcmitype/StillImage" />
        <dc:title />
      </cc:Work>
    </rdf:RDF>
  </metadata>
  <path
     style="opacity:0.2;fill:url(#radialGradient3035);fill-opacity:1;fill-rule:evenodd;stroke:none;stroke-width:0.99999988;marker:none;visibility:visible;display:inline;overflow:visible"
     id="path8836"
     inkscape:connector-curvature="0"
     d="m 46.99999,38 c 0,4.418278 -10.29745,8 -23,8 -12.70255,0 -23,-3.581722 -23,-8 0,-4.418278 10.29745,-8 23,-8 12.70255,0 23,3.581722 23,8 l 0,0 z" />
  <path
     style="color:#000000;fill:url(#radialGradient3032);fill-opacity:1;fill-rule:nonzero;stroke:none;stroke-width:0.98542732;marker:none;visibility:visible;display:inline;overflow:visible;enable-background:accumulate"
     id="path6603"
     inkscape:connector-curvature="0"
     d="M 23.968895,5.0131008 C 16.592218,5.2883273 8.9089718,8.65097 5.0069774,15.173361 c -2.913726,4.663635 -2.6136853,11.049914 0.8318021,15.356816 1.2447772,1.726207 2.953728,3.041003 4.6440115,4.276023 0.79625,2.494722 -0.9422838,4.881171 -2.4027468,6.759819 0.9337718,0.381889 3.5369218,-0.52824 5.0411008,-1.104402 1.804057,-0.683727 3.449549,-1.735641 5.100049,-2.691806 8.324488,1.587231 17.732495,-0.910817 23.282092,-7.556259 C 45.077045,26.097114 46.150325,19.84052 43.550228,14.948139 40.262468,8.5733208 32.977576,5.3105154 26.0636,5.0301303 25.365888,5.001382 24.666939,4.988438 23.968895,5.0131008 z" />
  <path
     style="color:#000000;fill:none;stroke:url(#linearGradient3029);stroke-width:0.99992168;stroke-linecap:butt;stroke-linejoin:round;stroke-miterlimit:4;stroke-opacity:1;stroke-dasharray:none;stroke-dashoffset:0;marker:none;visibility:visible;display:inline;overflow:visible;enable-background:accumulate"
     id="path4111-6"
     inkscape:connector-curvature="0"
     d="M 23.943288,4.5668725 C 23.394511,4.5876982 22.853792,4.6284659 22.298574,4.6805624 10.453616,5.791918 1.6167679,14.31164 2.5619989,23.665688 c 0.471882,4.669741 3.306144,8.667634 7.4862871,11.368337 l 0,0.113694 c 0,0 1.300746,2.200631 -3.1192861,7.105211 0,0 4.7867951,0.298017 11.2861441,-4.035759 2.375957,0.454105 4.883383,0.585264 7.486286,0.341051 11.844976,-1.11135 20.681789,-9.574234 19.736573,-18.928286 -0.856611,-8.477105 -9.429707,-14.7867411 -19.85,-15.0630472 -0.538977,-0.014369 -1.095957,-0.020825 -1.644715,0 z" />
  <path
     style="color:#000000;fill:none;stroke:url(#linearGradient3026);stroke-width:1.00000012;stroke-linecap:round;stroke-linejoin:miter;stroke-miterlimit:4;stroke-opacity:1;stroke-dasharray:none;stroke-dashoffset:0;marker:none;visibility:visible;display:inline;overflow:visible;enable-background:accumulate"
     id="path6779"
     inkscape:connector-curvature="0"
     d="M 23.96875,5.5624998 C 16.771183,5.8495969 9.2786372,9.0832639 5.4510532,15.432873 2.6299371,19.909659 2.9069357,26.051826 6.2246441,30.196166 c 1.2257345,1.798425 3.09854,2.987858 4.7113519,4.353929 0.96352,2.283505 -0.504078,4.594178 -1.779746,6.418655 3.190523,-0.439229 6.073426,-2.057483 8.771796,-3.723483 1.616151,0.02179 3.247226,0.492268 4.891123,0.427047 7.470476,0.1032 15.390909,-3.040369 19.538078,-9.497143 C 45.31235,23.745272 45.191535,17.55286 41.949374,13.305912 37.876835,7.7448955 30.662696,5.3347036 23.96875,5.5624998 z" />
  <path
     style="font-size:62.45826339999999988px;font-style:normal;font-variant:normal;font-weight:normal;font-stretch:normal;text-align:start;line-height:125%;writing-mode:lr-tb;text-anchor:start;fill:#ff2121;fill-opacity:1;stroke:none;font-family:Georgia"
     id="path3393-4"
     inkscape:connector-curvature="0"
     d="m 22.895029,7.5462339 c -1.294039,-0.1853855 -2.622175,0.7944245 -2.65799,1.8343875 4.52e-4,0.01247 4.52e-4,0.02497 0,0.03744 -0.0068,0.08478 0.01729,0.201185 0.03744,0.374365 0.002,0.01717 -0.002,0.01908 0,0.03744 1.168945,5.5173096 1.567272,11.0542656 2.732863,16.4720506 0.706689,-0.07554 1.804708,-0.220412 2.54568,-0.299491 -0.160569,-5.346408 -0.646996,-10.657739 -0.711293,-16.0602506 -4.51e-4,-0.01247 -4.51e-4,-0.02497 0,-0.03744 0.105685,-1.051971 -0.602344,-2.2399633 -1.90926,-2.3584985 -0.01247,4.516e-4 -0.02497,4.516e-4 -0.03744,0 l 0,0 z M 25.3284,30.270177 c -0.737832,-0.07599 -1.467453,0.120118 -1.946696,0.673857 4.51e-4,0.01247 4.51e-4,0.02496 0,0.03744 -0.514263,0.534491 -0.809746,1.303111 -0.711294,2.02157 4.52e-4,0.01247 4.52e-4,0.02497 0,0.03744 0.119222,1.561146 2.027705,2.592875 3.40672,1.946697 0.01247,-4.51e-4 0.02497,-4.51e-4 0.03744,0 1.343185,-0.50781 1.908252,-2.439793 1.048222,-3.631338 -0.01311,-0.01186 -0.0256,-0.02433 -0.03744,-0.03744 -0.394356,-0.62049 -1.065321,-0.972869 -1.796951,-1.048221 z" />
  <path
     style="font-size:62.45826339999999988px;font-style:normal;font-variant:normal;font-weight:normal;font-stretch:normal;text-align:start;line-height:125%;writing-mode:lr-tb;text-anchor:start;fill:#ff2121;fill-opacity:1;stroke:none;font-family:Georgia"
     id="path3393"
     inkscape:connector-curvature="0"
     d="m 22.895029,7.1666531 c -1.294039,-0.1853854 -2.622175,0.7944249 -2.65799,1.8343863 4.52e-4,0.01247 4.52e-4,0.02497 0,0.03744 -0.0068,0.08478 0.01729,0.201185 0.03744,0.374365 0.002,0.01717 -0.002,0.01908 0,0.03744 1.168945,5.5173096 1.567272,11.0542656 2.732863,16.4720506 0.706689,-0.07554 1.804708,-0.220412 2.54568,-0.299491 -0.160572,-5.346415 -0.646999,-10.657746 -0.711296,-16.0602576 -4.51e-4,-0.01247 -4.51e-4,-0.02496 0,-0.03744 0.105685,-1.051971 -0.602344,-2.239962 -1.90926,-2.3584973 -0.01247,4.517e-4 -0.02497,4.517e-4 -0.03744,0 l 0,0 z M 25.3284,29.890595 c -0.737832,-0.07599 -1.467453,0.120118 -1.946696,0.673857 4.51e-4,0.01247 4.51e-4,0.02496 0,0.03744 -0.514263,0.534491 -0.809746,1.303111 -0.711294,2.02157 4.52e-4,0.01247 4.52e-4,0.02497 0,0.03744 0.119222,1.561145 2.027705,2.592874 3.40672,1.946696 0.01247,-4.51e-4 0.02497,-4.51e-4 0.03744,0 1.343185,-0.50781 1.908252,-2.439793 1.048222,-3.631338 -0.01311,-0.01186 -0.0256,-0.02433 -0.03744,-0.03744 -0.394356,-0.620491 -1.065321,-0.97287 -1.796951,-1.048222 z" />
  <path
     style="font-size:62.4582634px;font-style:normal;font-variant:normal;font-weight:normal;font-stretch:normal;text-align:start;line-height:125%;writing-mode:lr-tb;text-anchor:start;opacity:0.07000002;fill:#ffffff;fill-opacity:1;stroke:url(#linearGradient3021);stroke-width:1;stroke-opacity:1;font-family:Georgia"
     id="path3935"
     inkscape:connector-curvature="0"
     d="m 22.820156,7.6993544 c -0.854309,-0.1065353 -2.05089,0.4617768 -2.047167,1.423534 0.568002,2.9591916 1.053644,5.9387696 1.468563,8.9255246 0.355102,2.435656 0.716856,4.872202 1.215024,7.283522 0.773458,-0.09481 1.887202,0.110549 1.504361,-0.996651 C 24.755777,19.239573 24.360519,14.14802 24.301803,9.0488654 24.19643,8.3243674 23.572595,7.6965823 22.820156,7.6993544 z" />
  <path
     style="font-size:62.4582634px;font-style:normal;font-variant:normal;font-weight:normal;font-stretch:normal;text-align:start;line-height:125%;writing-mode:lr-tb;text-anchor:start;opacity:0.1;fill:#ffffff;fill-opacity:1;stroke:url(#linearGradient3018);stroke-width:1;stroke-opacity:1;font-family:Georgia"
     id="path3920"
     inkscape:connector-curvature="0"
     d="m 25.290964,30.423296 c -1.643289,-0.327087 -2.797292,2.011321 -1.645254,3.162469 0.830248,0.959039 2.647652,0.925914 3.163379,-0.339025 0.633132,-1.098361 -0.067,-2.563753 -1.29924,-2.789586 l -0.218885,-0.03385 z" />
  <path
     style="opacity:0.3;fill:#ffffff;fill-opacity:1;stroke:none"
     id="path3796"
     inkscape:connector-curvature="0"
     d="m 10.493698,34.807261 c 1.648283,1.200601 3.613829,1.493814 3.613829,1.493814 0,0 -1.565036,3.012603 -5.4628278,4.621112 3.3058148,-4.842178 1.8489988,-6.114926 1.8489988,-6.114926 z" />
</svg>
